<svg width="111" height="111" viewBox="0 0 111 111" fill="none" xmlns="http://www.w3.org/2000/svg">
<path d="M55.23 110.66C85.5504 110.66 110.13 86.0804 110.13 55.76C110.13 25.4396 85.5504 0.860001 55.23 0.860001C24.9096 0.860001 0.330002 25.4396 0.330002 55.76C0.330002 86.0804 24.9096 110.66 55.23 110.66Z" fill="#E6E6E6"/>
<path fill-rule="evenodd" clip-rule="evenodd" d="M77.54 31.47C78.3 32.82 78.25 34.95 77.58 37.6C76.79 40.72 74.84 42.96 72.91 43.18C71.93 47.69 70 51.67 67.44 54.69C70.82 57.37 73.63 60.38 75.62 63.87C80.63 65.47 85.54 68.14 90.49 70.38C91.74 70.95 91.5 70.75 92.06 72.04C94.34 77.32 95.96 82.7 97.95 88.02C88.08 100.77 72.63 108.98 55.25 108.98C37.85 108.98 22.37 100.74 12.5 87.94C14.8 83.04 16.16 77.15 18.6 71.99C19.27 70.59 19.05 70.81 20.44 70.2C25.21 68.12 29.71 65.75 34.89 64.12C37.18 60.2 40.08 57.11 43.67 54.98C40.98 51.93 38.98 47.86 37.96 43.19C35.92 43.23 33.76 40.92 32.92 37.6C32.25 34.95 32.21 32.82 32.96 31.47C33.36 30.77 33.84 30.42 34.35 30.31C31.35 19.61 34.89 12.18 42.49 7.72C53.1 -0.349999 66.63 0.350001 74.78 11.63C78.6 16.92 79.22 24.77 77.54 31.47Z" fill="#1A1617"/>
<path fill-rule="evenodd" clip-rule="evenodd" d="M55.03 2.46C50.73 2.95 46.41 4.73 42.49 7.72C34.89 12.18 31.35 19.61 34.35 30.31C35.52 30.06 36.83 31.11 37.46 32.3C37.6 32.58 37.74 33.02 37.69 33.33C37.75 34.74 37.93 36.15 38.24 37.45C38.34 37.87 39.12 38.31 39.02 37.67C38.65 35.33 38.94 32.58 38.55 30.37L38.19 28.4C39.52 23.12 42.16 18.64 45.59 15.67C48.68 19.06 52.32 21.87 57.12 22.38C65.4 23.27 70.16 25.96 72.63 30.37C72.24 32.58 72.52 35.33 72.16 37.67C72.06 38.31 72.84 37.87 72.94 37.45C73.25 36.15 73.16 34.75 73.22 33.34C73.08 32.84 73.07 32.26 73.34 31.83C74.29 30.3 76.38 29.39 77.54 31.47C79.22 24.77 78.6 16.92 74.78 11.63C70.79 6.11 65.51 3.12 59.91 2.46H55.03Z" fill="#3D3D3D"/>
<path fill-rule="evenodd" clip-rule="evenodd" d="M33.6 30.68C33.37 30.87 33.16 31.13 32.96 31.47C32.21 32.82 32.25 34.95 32.92 37.6C33.5 39.86 34.68 41.66 36.03 42.56C36.65 42.98 37.31 43.21 37.96 43.19C38.98 47.86 40.98 51.93 43.67 54.98C43.34 55.94 43.03 57.25 42.75 58.56C46.34 64.12 50.64 67.36 55.25 67.36C60.11 67.36 64.61 63.78 68.31 57.69C67.98 56.35 67.66 55.27 67.44 54.69C70 51.67 71.93 47.69 72.91 43.18C73.44 43.12 73.97 42.9 74.48 42.56C75.83 41.66 77.01 39.86 77.58 37.6C78.25 34.95 78.3 32.82 77.54 31.47C77.35 31.13 77.14 30.87 76.91 30.68C75.73 29.7 74.13 30.55 73.34 31.83C73.07 32.26 73.08 32.84 73.22 33.34C73.16 34.75 73.25 36.15 72.94 37.45C72.84 37.87 72.06 38.31 72.16 37.67C72.52 35.33 72.24 32.58 72.63 30.37C70.16 25.96 65.4 23.27 57.12 22.38C52.32 21.87 48.68 19.06 45.59 15.67C42.16 18.64 39.52 23.12 38.19 28.4L38.55 30.37C38.94 32.58 38.65 35.33 39.02 37.67C39.12 38.31 38.34 37.87 38.24 37.45C37.93 36.15 37.75 34.74 37.69 33.33C37.74 33.02 37.6 32.58 37.46 32.3C36.83 31.11 35.52 30.06 34.35 30.31C34.09 30.36 33.84 30.48 33.6 30.68Z" fill="#F6D5B8"/>
<path fill-rule="evenodd" clip-rule="evenodd" d="M37.8 42.11C37.4 40.28 37.18 38.43 37.14 36.57C37.11 35.38 37.15 34.18 37.26 32.99C37.16 32.85 37.06 32.72 36.94 32.59C36.55 32.18 35.85 31.65 35.22 31.71C34.75 31.74 34.44 32.12 34.24 32.47C33.45 33.88 33.98 36.25 34.41 37.69C34.78 38.92 35.43 40.2 36.39 41.14C36.76 41.51 37.26 41.89 37.8 42.11ZM72.95 42.11C73.35 40.28 73.57 38.43 73.61 36.57C73.65 35.38 73.6 34.18 73.49 32.99C73.59 32.85 73.69 32.72 73.81 32.59C74.2 32.18 74.9 31.65 75.53 31.71C76 31.74 76.31 32.12 76.51 32.47C77.3 33.88 76.77 36.25 76.34 37.69C75.98 38.92 75.32 40.2 74.36 41.14C73.99 41.51 73.49 41.89 72.95 42.11Z" fill="#E6C6AA"/>
<path fill-rule="evenodd" clip-rule="evenodd" d="M43.67 55.03C36.89 74.06 51.37 91.91 54.67 108.98C54.13 108.97 53.59 108.96 53.05 108.93L31.19 81.5L37.43 76.61C36.07 74.71 33.54 73.8 32.42 71.84C33.47 69.36 33.39 66.54 34.89 64.17C37.18 60.25 40.08 57.16 43.67 55.03ZM68.6 55.65C71.47 58.08 73.86 60.79 75.62 63.87C75.88 63.95 76.13 64.04 76.38 64.12L76.41 64.17C77.91 66.54 77.83 69.36 78.88 71.84C77.76 73.8 75.24 74.71 73.87 76.61L80.11 81.5L58.29 108.9C57.74 108.93 57.19 108.95 56.63 108.96C59.94 91.9 74.41 74.05 67.63 55.03C67.96 55.23 68.28 55.43 68.6 55.65Z" fill="#383032"/>
<path fill-rule="evenodd" clip-rule="evenodd" d="M67.44 54.69C67.49 54.63 62.7 60.09 55.48 60.09C50.45 60.09 43.7 55.01 43.7 55.02L43.49 55.91C44.77 57.4 46.21 58.59 47.79 59.54C50.13 60.94 52.78 61.81 55.66 62.29C58.43 62.75 61.42 62.85 64.54 62.71C65.87 61.32 67.13 59.63 68.31 57.69C67.99 56.36 67.66 55.27 67.44 54.69Z" fill="#E6C6AA"/>
<path fill-rule="evenodd" clip-rule="evenodd" d="M55.25 67.36C50.64 67.36 46.34 64.12 42.75 58.56C43.03 57.25 43.34 55.94 43.67 54.98C39.28 67.3 43.8 79.12 48.43 90.56C50.96 96.81 53.52 102.94 54.68 108.98H55.25C55.71 108.98 56.17 108.97 56.62 108.96C57.7 103.39 59.97 97.72 62.3 91.97C67.11 80.09 72.2 67.8 67.63 54.98C67.87 55.13 68.1 55.27 68.34 55.42C68.04 55.18 67.74 54.93 67.44 54.69C67.66 55.27 67.98 56.35 68.31 57.69C67.13 59.63 65.87 61.32 64.54 62.71C61.7 65.7 58.56 67.36 55.25 67.36Z" fill="white"/>
<path fill-rule="evenodd" clip-rule="evenodd" d="M55.31 68.39L49.52 77.62L51.47 80.43L48.43 90.59C50.95 96.83 53.51 102.95 54.67 108.98H55.25C55.71 108.98 56.17 108.97 56.63 108.96C57.71 103.4 59.97 97.75 62.3 92C62.61 91.16 59 80.56 59 80.56L60.95 77.13L55.31 68.39Z" fill="#F23034"/>
<path fill-rule="evenodd" clip-rule="evenodd" d="M55.31 68.59L46.29 80.83L42.45 71.93C43.53 78.29 45.99 84.53 48.47 90.66L51.47 80.63L49.52 77.82L55.31 68.59ZM64.39 81.01L55.31 68.59L60.95 77.33L59 80.76C59 80.76 62.17 90.07 62.31 91.93C65.04 85.22 67.84 78.37 68.94 71.37L64.39 81.01Z" fill="#E6E6E6"/>
<path fill-rule="evenodd" clip-rule="evenodd" d="M57.12 22.38C52.32 21.87 48.68 19.06 45.59 15.67C42.16 18.64 39.52 23.12 38.19 28.4C40.64 24.64 42.23 19.82 45.54 17.13C50.01 26.31 65.61 22.93 72.63 30.37C70.16 25.96 65.4 23.27 57.12 22.38Z" fill="#E6C6AA"/>
</svg>
