<svg width="111" height="111" viewBox="0 0 111 111" fill="none" xmlns="http://www.w3.org/2000/svg">
<path d="M55.56 110.55C85.8804 110.55 110.46 85.9704 110.46 55.65C110.46 25.3296 85.8804 0.75 55.56 0.75C25.2396 0.75 0.660004 25.3296 0.660004 55.65C0.660004 85.9704 25.2396 110.55 55.56 110.55Z" fill="#E6E6E6"/>
<path fill-rule="evenodd" clip-rule="evenodd" d="M38.59 64.67C38.4 64.82 38.12 64.88 37.4 65.13C33.62 66.44 29.86 67.99 26.12 69.82C23.76 70.97 23.99 70.55 22.97 72.94C20.34 79.06 17.84 85.46 16 91.61C22.19 98.28 30.05 103.38 38.91 106.25C42.24 107.15 45.7 107.89 49.23 108.5C51.13 108.72 53.07 108.85 55.03 108.87H56.24C58.15 108.84 60.03 108.72 61.89 108.5C65.41 107.89 68.88 107.15 72.21 106.25C81.07 103.38 88.92 98.28 95.12 91.61C93.28 85.46 90.78 79.06 88.15 72.94C87.13 70.55 87.36 70.97 84.99 69.82C81.26 67.99 77.5 66.44 73.72 65.13C73.21 64.95 72.93 64.87 72.73 64.79L72.68 64.67C71.96 63.43 71.11 62.28 70.14 61.2C74.73 61.52 78.46 60.38 80.8 57.55C83.06 54.8 83.19 52.76 83.31 49.43C83.54 42.9 83.04 35.88 81.24 29.34C79.49 22.95 76.51 17.02 71.78 12.46C67.25 8.1 61.96 4.66 55.56 4.66C51.05 4.66 47.14 5.49 44.38 9.86C41.66 9.51 40.18 10.72 38.37 12.46C33.64 17.02 30.66 22.95 28.91 29.34C27.11 35.88 26.61 42.9 26.84 49.43C26.96 52.76 27.08 54.8 29.35 57.55C31.85 60.58 35.95 61.67 40.98 61.12H41.04C40.11 62.18 39.3 63.37 38.59 64.67Z" fill="#1A1617"/>
<path fill-rule="evenodd" clip-rule="evenodd" d="M40.98 61.13C41.97 60.07 43.15 59.08 44.47 58.14L45.16 54.94C42.77 52.16 40.97 48.44 40.07 44.19C38.26 44.23 36.35 42.12 35.61 39.1C35.01 36.7 34.97 34.76 35.64 33.53C36.78 31.44 38.82 32.74 39.63 34.29C40.38 27.95 43.07 22.51 46.84 19.17C49.57 22.25 52.8 24.8 57.05 25.27C65.18 26.17 69.48 29.06 71.44 33.86C72.36 32.52 74.13 31.64 75.17 33.53C75.83 34.76 75.79 36.7 75.2 39.1C74.5 41.94 72.77 43.98 71.06 44.17C70.18 48.28 68.48 51.89 66.21 54.64L66.16 54.94L66.89 58.31C68.03 59.08 69.17 60.05 70.09 61.22C74.7 61.55 78.45 60.41 80.8 57.57C83.06 54.82 83.19 52.78 83.31 49.45C83.54 42.92 83.04 35.89 81.24 29.35C79.49 22.96 76.51 17.03 71.78 12.48C67.25 8.12 61.96 4.67 55.56 4.67C51.05 4.67 47.14 5.51 44.38 9.87C41.66 9.52 40.18 10.74 38.37 12.48C33.64 17.03 30.66 22.96 28.91 29.35C27.11 35.89 26.61 42.92 26.84 49.45C26.96 52.78 27.08 54.82 29.35 57.57C31.85 60.6 35.95 61.69 40.98 61.13Z" fill="#3D3D3D"/>
<path fill-rule="evenodd" clip-rule="evenodd" d="M71.44 33.86C72.36 32.52 74.13 31.64 75.17 33.53C75.83 34.76 75.79 36.7 75.2 39.1C74.5 41.94 72.77 43.98 71.06 44.17C70.18 48.28 68.48 51.89 66.21 54.64L66.16 54.94L66.86 58.15L66.8 58.14C66.86 58.33 66.92 58.51 66.97 58.69L67 58.8C67.24 59.68 67.47 60.61 67.67 61.6C69.06 69.57 66.21 77.03 62.85 84.76C60.99 86.74 58.2 88.27 55.66 88.16C53.08 88.27 50.23 86.69 48.38 84.65C45.25 77.46 42.58 70.49 43.38 63.12C43.62 61.57 43.96 60.11 44.33 58.8L44.47 58.14L45.16 54.94C42.77 52.16 40.97 48.44 40.07 44.19C38.26 44.23 36.35 42.12 35.61 39.1C35.01 36.7 34.97 34.76 35.64 33.53C36.78 31.44 38.82 32.74 39.63 34.29C40.38 27.95 43.07 22.51 46.84 19.17C49.57 22.25 52.8 24.8 57.05 25.27C65.18 26.17 69.48 29.06 71.44 33.86Z" fill="#F6D5B8"/>
<path fill-rule="evenodd" clip-rule="evenodd" d="M39.93 43.51C39.57 41.85 39.38 40.17 39.34 38.48C39.31 37.39 39.35 36.31 39.45 35.22C39.36 35.1 39.27 34.98 39.16 34.86C38.82 34.49 38.2 34.01 37.64 34.05C37.22 34.09 36.95 34.43 36.78 34.75C36.07 36.03 36.54 38.18 36.92 39.49C37.25 40.61 37.83 41.77 38.68 42.63C39.01 42.97 39.45 43.31 39.93 43.51ZM71.09 43.51C71.45 41.85 71.64 40.17 71.68 38.48C71.71 37.39 71.67 36.31 71.57 35.22C71.66 35.1 71.75 34.98 71.86 34.86C72.2 34.49 72.82 34.01 73.38 34.05C73.8 34.09 74.07 34.43 74.25 34.75C74.95 36.03 74.48 38.18 74.1 39.49C73.77 40.61 73.19 41.77 72.34 42.63C72.01 42.97 71.58 43.31 71.09 43.51Z" fill="#E6C6AA"/>
<path fill-rule="evenodd" clip-rule="evenodd" d="M66.86 58.15L66.16 54.94L66.21 54.64C63.37 58.08 59.64 60.17 55.56 60.17C51.6 60.17 47.97 58.2 45.16 54.94L44.96 55.85C46.13 57.43 47.47 58.68 48.96 59.66C50.97 60.97 53.24 61.79 55.72 62.24C58.29 62.71 61.08 62.78 64.01 62.6C64.77 62.55 64.65 62.42 64.85 63.17C67.28 72.7 63.14 88.24 48.47 84.75C50.32 86.74 53.12 88.27 55.66 88.16C58.2 88.27 60.99 86.74 62.85 84.76C66.49 76.38 69.88 67.3 66.86 58.15Z" fill="#E6C6AA"/>
<path fill-rule="evenodd" clip-rule="evenodd" d="M71.44 33.86C69.48 29.06 65.18 26.17 57.05 25.27C52.8 24.8 49.57 22.25 46.84 19.17C43.07 22.51 40.38 27.95 39.63 34.28C41.8 29.8 43.51 24.66 46.73 21.5C50.91 31.39 65.12 25.19 71.44 33.86Z" fill="#E6C6AA"/>
<path fill-rule="evenodd" clip-rule="evenodd" d="M72.68 64.67C73.18 65.76 73.61 66.88 73.95 68.03C74.29 69.18 74.54 70.37 74.69 71.59C74.73 71.93 74.78 72.12 74.77 72.3C74.77 72.47 74.7 72.64 74.51 72.92C74.13 73.5 73.68 74.03 73.15 74.54C72.62 75.04 72.02 75.51 71.36 75.96L73.74 78.5L76.13 81.04L65.88 94.12L55.64 107.2L45.39 94.12L35.14 81.04L37.53 78.5L39.91 75.96C39.25 75.51 38.65 75.04 38.12 74.54C37.6 74.03 37.14 73.5 36.76 72.92C36.57 72.64 36.5 72.47 36.5 72.3C36.49 72.12 36.54 71.93 36.58 71.59C36.73 70.37 36.98 69.18 37.32 68.03C37.66 66.88 38.09 65.76 38.59 64.67C39.33 63.32 40.17 62.09 41.15 60.99C42.12 59.89 43.22 58.94 44.47 58.14C41.84 66.1 43.8 73.48 46.83 80.98C49.86 88.49 53.97 96.13 55.64 104.63C57.3 96.13 61.42 88.49 64.47 80.99C67.52 73.48 69.49 66.11 66.86 58.15C68.08 59.09 69.17 60.09 70.14 61.18C71.11 62.26 71.96 63.42 72.68 64.67Z" fill="#383032"/>
<path fill-rule="evenodd" clip-rule="evenodd" d="M55.64 104.63C57.02 97.55 60.1 91.07 62.85 84.76C60.99 86.74 58.2 88.27 55.66 88.16C53.12 88.27 50.32 86.74 48.47 84.75C48.44 84.72 48.41 84.68 48.38 84.65C51.13 90.99 54.24 97.51 55.64 104.63Z" fill="white"/>
</svg>
