<svg width="368" height="211" viewBox="0 0 368 211" fill="none" xmlns="http://www.w3.org/2000/svg">
<path d="M70.1851 106.642H63.6474V120.039H70.1851V106.642Z" fill="#2D404E"/>
<path d="M66.312 106.642H63.6474V120.039H66.312V106.642Z" fill="#253744"/>
<path d="M183.917 68.9156V162.186C183.917 162.186 205.802 151.958 230.457 145.924C255.111 139.892 283.437 134.121 287.896 123.63C288.42 112.352 279.766 69.0758 264.029 51.7654L183.917 68.9156Z" fill="#2D404E"/>
<path opacity="0.5" d="M286.64 110.32C283.722 92.5892 275.886 64.8091 264.029 51.7654L183.916 68.9156V81.6763L258.423 60.0194C258.423 60.0194 277.046 81.728 277.453 119.97C287.029 115.832 286.686 110.747 286.64 110.32Z" fill="#253744"/>
<path opacity="0.7" d="M270.213 119.971C262.211 122.488 221.555 129.615 207.622 133.473C196.906 136.44 187.767 140.106 183.917 141.905V162.186C183.917 162.186 205.802 151.958 230.457 145.924C255.111 139.892 283.437 134.121 287.896 123.63C288.029 120.77 287.569 115.845 286.556 109.815C282.422 115.816 276.686 117.935 270.213 119.971Z" fill="#253744"/>
<path d="M183.917 0L0 25.2943V29.5811L183.917 68.9156L367.834 29.5811V25.2943L183.917 0Z" fill="#2D404E"/>
<path d="M72.7039 126.804C72.2757 123.826 70.147 120.047 70.147 120.047L66.917 119.932L63.6855 120.047C63.6855 120.047 61.5583 123.827 61.1286 126.804C60.7005 129.783 59.0926 197.935 59.1989 204.694C59.3067 211.451 66.9163 210.993 66.9163 210.993C66.9163 210.993 74.5258 211.452 74.6321 204.694C74.7413 197.935 73.1328 129.783 72.7039 126.804Z" fill="#F2B643"/>
<path d="M183.917 68.9156V162.186C183.917 162.186 162.03 151.958 137.376 145.924C112.722 139.892 84.3955 134.121 79.9362 123.63C79.4118 112.352 88.0673 69.0758 103.804 51.7654L183.917 68.9156Z" fill="#253744"/>
<path d="M183.917 148.285V162.187C183.917 162.187 205.802 151.958 230.457 145.924C255.111 139.892 283.437 134.122 287.896 123.631C288.027 120.846 287.596 116.105 286.636 110.288C286.636 110.288 287.634 116.812 273.996 121.271C260.356 125.729 232.03 132.286 220.227 135.172C208.426 138.055 190.093 144.875 183.917 148.285Z" fill="#F2B643"/>
<path d="M367.834 25.2943V29.5812L183.917 73.8124L0 29.5812V25.2943L184.366 62.0655L367.834 25.2943Z" fill="#253744"/>
<path d="M66.9162 108.341C69.8373 108.341 72.2053 106.613 72.2053 104.483C72.2053 102.352 69.8373 100.625 66.9162 100.625C63.9952 100.625 61.6272 102.352 61.6272 104.483C61.6272 106.613 63.9952 108.341 66.9162 108.341Z" fill="#F2B643"/>
<path opacity="0.5" d="M286.794 111.299C286.849 111.642 286.907 111.992 286.958 112.326C286.907 111.992 286.849 111.642 286.794 111.299Z" fill="#253744"/>
<path opacity="0.5" d="M287.118 113.47C287.161 113.765 287.205 114.07 287.245 114.359C287.205 114.07 287.161 113.766 287.118 113.47Z" fill="#253744"/>
<path opacity="0.5" d="M287.386 115.495C287.419 115.751 287.454 116.018 287.482 116.268C287.454 116.018 287.419 115.752 287.386 115.495Z" fill="#253744"/>
<path opacity="0.5" d="M287.6 117.383C287.624 117.603 287.65 117.834 287.669 118.047C287.65 117.834 287.624 117.603 287.6 117.383Z" fill="#253744"/>
<path opacity="0.5" d="M284.945 127.541C284.764 127.704 284.577 127.867 284.384 128.028C284.577 127.867 284.764 127.704 284.945 127.541Z" fill="#253744"/>
<path opacity="0.5" d="M287.859 120.655C287.868 120.824 287.88 121.006 287.887 121.17C287.881 121.006 287.868 120.824 287.859 120.655Z" fill="#253744"/>
<path opacity="0.5" d="M285.933 126.565C285.71 126.808 285.475 127.048 285.228 127.285C285.477 127.048 285.708 126.808 285.933 126.565Z" fill="#253744"/>
<path opacity="0.5" d="M282.677 129.319C282.531 129.421 282.383 129.52 282.231 129.62C282.383 129.521 282.531 129.421 282.677 129.319Z" fill="#253744"/>
<path opacity="0.5" d="M284.006 128.342C283.75 128.546 283.483 128.748 283.208 128.949C283.483 128.748 283.75 128.546 284.006 128.342Z" fill="#253744"/>
<path opacity="0.5" d="M279.982 130.98C279.902 131.024 279.82 131.069 279.74 131.113C279.821 131.069 279.902 131.024 279.982 130.98Z" fill="#253744"/>
<path opacity="0.5" d="M287.756 119.088C287.771 119.285 287.791 119.495 287.805 119.686C287.791 119.495 287.771 119.285 287.756 119.088Z" fill="#253744"/>
<path opacity="0.5" d="M287.343 124.699C287.178 124.975 287.001 125.248 286.805 125.517C287.002 125.247 287.179 124.974 287.343 124.699Z" fill="#253744"/>
<path opacity="0.5" d="M286.708 125.641C286.534 125.87 286.347 126.097 286.149 126.322C286.347 126.097 286.534 125.87 286.708 125.641Z" fill="#253744"/>
<path opacity="0.5" d="M287.896 123.63C287.772 123.922 287.624 124.207 287.463 124.492C287.624 124.207 287.772 123.923 287.896 123.63Z" fill="#253744"/>
<path opacity="0.5" d="M287.91 122.081C287.912 122.213 287.919 122.361 287.919 122.487C287.918 122.361 287.911 122.213 287.91 122.081Z" fill="#253744"/>
<path d="M286.636 110.288C286.636 110.288 286.637 110.301 286.64 110.32C286.695 110.653 286.744 110.974 286.794 111.299C286.743 110.962 286.693 110.634 286.636 110.288Z" fill="#F2B643"/>
<path d="M282.231 129.62C281.531 130.084 280.78 130.536 279.982 130.98C280.781 130.537 281.531 130.084 282.231 129.62Z" fill="#F2B643"/>
<path d="M283.208 128.949C283.037 129.074 282.857 129.196 282.678 129.32C282.855 129.196 283.036 129.073 283.208 128.949Z" fill="#F2B643"/>
<path d="M285.227 127.285C285.136 127.371 285.039 127.454 284.945 127.54C285.039 127.455 285.136 127.371 285.227 127.285Z" fill="#F2B643"/>
<path d="M285.933 126.565C286.008 126.485 286.077 126.403 286.149 126.322C286.077 126.404 286.007 126.485 285.933 126.565Z" fill="#F2B643"/>
<path d="M287.887 121.17C287.902 121.492 287.904 121.784 287.909 122.081C287.904 121.784 287.902 121.492 287.887 121.17Z" fill="#F2B643"/>
<path d="M284.383 128.028C284.258 128.132 284.136 128.237 284.006 128.342C284.136 128.237 284.26 128.133 284.383 128.028Z" fill="#F2B643"/>
<path d="M286.805 125.516C286.773 125.558 286.738 125.599 286.707 125.641C286.738 125.599 286.773 125.558 286.805 125.516Z" fill="#F2B643"/>
<path d="M287.918 122.488C287.92 122.898 287.912 123.28 287.896 123.631C287.912 123.28 287.92 122.899 287.918 122.488Z" fill="#F2B643"/>
<path d="M287.669 118.047C287.704 118.409 287.729 118.746 287.756 119.088C287.729 118.746 287.703 118.409 287.669 118.047Z" fill="#F2B643"/>
<path d="M287.805 119.686C287.828 120.026 287.843 120.337 287.859 120.655C287.843 120.337 287.828 120.026 287.805 119.686Z" fill="#F2B643"/>
<path d="M287.482 116.268C287.527 116.653 287.563 117.016 287.6 117.383C287.563 117.016 287.527 116.653 287.482 116.268Z" fill="#F2B643"/>
<path d="M287.463 124.492C287.424 124.561 287.385 124.63 287.343 124.699C287.385 124.63 287.425 124.56 287.463 124.492Z" fill="#F2B643"/>
<path d="M286.957 112.326C287.014 112.718 287.066 113.09 287.118 113.47C287.067 113.09 287.014 112.718 286.957 112.326Z" fill="#F2B643"/>
<path d="M287.245 114.359C287.297 114.749 287.34 115.12 287.386 115.495C287.34 115.12 287.297 114.749 287.245 114.359Z" fill="#F2B643"/>
<path d="M286.708 125.641C286.738 125.599 286.774 125.558 286.806 125.516C287.002 125.247 287.18 124.974 287.343 124.698C287.386 124.629 287.425 124.56 287.464 124.492C287.624 124.207 287.773 123.922 287.897 123.63C287.913 123.28 287.92 122.897 287.919 122.487C287.919 122.361 287.912 122.213 287.91 122.08C287.904 121.784 287.902 121.492 287.888 121.169C287.881 121.006 287.869 120.824 287.86 120.654C287.843 120.337 287.829 120.025 287.805 119.685C287.791 119.494 287.772 119.284 287.756 119.088C287.73 118.745 287.705 118.409 287.67 118.047C287.652 117.833 287.625 117.602 287.601 117.383C287.564 117.015 287.527 116.652 287.483 116.267C287.455 116.017 287.419 115.75 287.387 115.494C287.341 115.119 287.297 114.748 287.246 114.358C287.206 114.069 287.162 113.765 287.119 113.469C287.067 113.09 287.015 112.717 286.958 112.325C286.907 111.991 286.85 111.642 286.794 111.298C286.744 110.974 286.695 110.653 286.64 110.319C286.686 110.746 287.029 115.831 277.454 119.97C277.496 123.976 277.341 128.161 276.941 132.523C277.926 132.063 278.859 131.593 279.74 131.112C279.82 131.068 279.902 131.024 279.982 130.979C280.78 130.536 281.531 130.083 282.231 129.62C282.383 129.52 282.531 129.42 282.677 129.319C282.857 129.195 283.036 129.072 283.207 128.947C283.483 128.747 283.749 128.544 284.006 128.34C284.136 128.236 284.258 128.132 284.383 128.026C284.577 127.865 284.763 127.702 284.944 127.538C285.038 127.453 285.135 127.37 285.226 127.283C285.475 127.046 285.709 126.807 285.932 126.563C286.006 126.484 286.076 126.402 286.148 126.321C286.347 126.097 286.534 125.87 286.708 125.641Z" fill="#D89932"/>
<path d="M183.917 148.285V162.187C183.917 162.187 162.03 151.958 137.376 145.924C112.722 139.892 84.3955 134.122 79.9363 123.631C79.8069 120.846 80.238 116.105 81.1964 110.288C81.1964 110.288 80.1985 116.812 93.8378 121.271C107.475 125.729 135.802 132.286 147.606 135.172C159.407 138.055 177.738 144.875 183.917 148.285Z" fill="#F2B643"/>
<path opacity="0.5" d="M183.917 148.285C179.923 146.082 170.853 142.454 161.75 139.384V153.3C174.817 157.936 183.917 162.186 183.917 162.186V148.285Z" fill="#D89932"/>
<g opacity="0.7">
<path opacity="0.7" d="M72.2096 45.0251L66.8774 43.729L69.4415 38.9257L179.314 23.1713L179.912 27.4165L72.2096 45.0251Z" fill="#253744"/>
</g>
<path d="M68.1641 102.034H65.5922V43.4762L67.8976 37.8394L174.523 23.1627L174.875 25.711L69.7166 40.1865L68.1641 43.982V102.034Z" fill="#F2B643"/>
<path d="M183.68 29.4296C190.519 29.4296 196.063 26.9911 196.063 23.9832C196.063 20.9752 190.519 18.5368 183.68 18.5368C176.84 18.5368 171.296 20.9752 171.296 23.9832C171.296 26.9911 176.84 29.4296 183.68 29.4296Z" fill="#253744"/>
<path d="M183.917 26.3094C190.625 26.3094 196.064 24.5696 196.064 22.4234C196.064 20.2773 190.625 18.5375 183.917 18.5375C177.208 18.5375 171.77 20.2773 171.77 22.4234C171.77 24.5696 177.208 26.3094 183.917 26.3094Z" fill="#586A73"/>
<path opacity="0.1" d="M199.19 45.0251L112.876 42.5861L186.614 56.8763L333.233 29.4296C333.233 29.4296 241.775 44.8915 199.19 45.0251Z" fill="#C6CBCB"/>
<path d="M70.1879 107.516C69.287 108.032 68.1505 108.341 66.917 108.341C63.9944 108.341 61.6272 106.614 61.6272 104.483C61.6272 102.686 63.3112 101.175 65.5915 100.747C65.5915 100.747 63.3744 102.049 63.9793 104.544C64.9118 108.397 70.1879 107.516 70.1879 107.516Z" fill="#D89932"/>
<path d="M63.6474 189.061C63.5059 179.201 62.5023 131.614 63.6474 127.755C64.3235 125.48 65.3372 122.242 66.057 119.962L63.6855 120.046C63.6855 120.046 61.5582 123.826 61.1286 126.803C60.7005 129.782 59.0926 197.935 59.1989 204.694C59.3067 211.45 66.9163 210.993 66.9163 210.993C66.9163 210.993 69.7842 211.159 72.0235 209.727C63.4764 209.072 63.7782 198.083 63.6474 189.061Z" fill="#D89932"/>
<path opacity="0.3" d="M73.2369 190.595C73.2441 190.903 72.6507 191.166 71.9093 191.184C71.1714 191.2 70.568 190.963 70.5608 190.656L69.0974 126.929C69.0902 126.621 69.6822 126.359 70.4221 126.342C71.1614 126.326 71.7649 126.561 71.7735 126.868L73.2369 190.595Z" fill="white"/>
</svg>
